Coordinates
version=1
nRows=14
nColumns=40
inDegrees=yes

Units are S.I. units (second, meters, Newtons, ...)
Angles are in degrees.

endheader
time	pelvis_tilt	pelvis_list	pelvis_rotation	pelvis_tx	pelvis_ty	pelvis_tz	hip_flexion_r	hip_adduction_r	hip_rotation_r	knee_angle_r	knee_angle_r_beta	ankle_angle_r	subtalar_angle_r	mtp_angle_r	hip_flexion_l	hip_adduction_l	hip_rotation_l	knee_angle_l	knee_angle_l_beta	ankle_angle_l	subtalar_angle_l	mtp_angle_l	lumbar_extension	lumbar_bending	lumbar_rotation	arm_flex_r	arm_add_r	arm_rot_r	elbow_flex_r	pro_sup_r	wrist_flex_r	wrist_dev_r	arm_flex_l	arm_add_l	arm_rot_l	elbow_flex_l	pro_sup_l	wrist_flex_l	wrist_dev_l
     12.28000000	     -3.02717621	     -5.14997993	      3.79371039	      0.99974411	      0.92613326	      0.51496466	     -0.84309023	      4.98469483	    -18.42548900	      9.44898048	      9.44898048	     15.62452307	      9.17185617	     -5.57519062	     28.32838808	     -8.16592380	     -2.06366221	     24.00906253	     24.00906253	      5.08397094	    -10.53429115	      8.53389642	     -9.31518876	      6.45078452	      3.88351115	     34.95179486	    -18.34611927	     -9.60186489	     68.45171415	     45.25165972	      0.00000000	      0.00000000	     -9.61720126	     -5.89599568	      5.03778319	     26.13127839	     44.73613610	      0.00000000	      0.00000000
     12.29357143	     -3.08171070	     -5.15067596	      3.63190664	      1.00103837	      0.92543298	      0.51330792	     -1.19002815	      4.83729026	    -18.23505222	      9.61126537	      9.61126537	     15.95412761	      9.26618487	     -5.46470519	     27.78768978	     -7.95731732	     -1.85249918	     24.35681842	     24.35681842	      5.08936485	    -10.92453186	      8.36695171	     -9.16095184	      6.32149945	      3.86037802	     34.30088023	    -18.17312714	     -9.39582425	     68.36769494	     45.24542949	      0.00000000	      0.00000000	     -9.37591613	     -6.13529696	      4.90379251	     26.38546220	     44.76796816	      0.00000000	      0.00000000
     12.30714286	     -3.20239938	     -5.13194482	      3.49327629	      1.00223247	      0.92482638	      0.51128179	     -1.34183588	      4.57681891	    -18.20041292	     10.03056463	     10.03056463	     16.46376942	      9.52730580	     -4.75011541	     27.28365282	     -7.61828535	     -1.31239017	     24.48972988	     24.48972988	      4.92036145	    -11.86362706	      7.99801235	     -8.96991462	      6.25028092	      4.00472635	     33.40716375	    -18.42854869	     -8.92258406	     68.46437083	     45.22787394	      0.00000000	      0.00000000	     -9.06364917	     -6.35814628	      4.38335945	     27.08023606	     44.88290781	      0.00000000	      0.00000000
     12.32071429	     -3.26728792	     -5.14668754	      3.39642623	      1.00338284	      0.92447028	      0.50916487	     -1.63089062	      4.39990354	    -18.07990149	     10.23649243	     10.23649243	     16.61262620	      9.57911333	     -4.69949532	     26.86837452	     -7.43612754	     -1.09944797	     24.76953030	     24.76953030	      5.18195266	    -12.05722979	      7.81405067	     -8.85847987	      6.20489540	      3.85213143	     32.66635594	    -18.16889250	     -8.74353673	     68.23252314	     45.22674839	      0.00000000	      0.00000000	     -8.58060498	     -6.58570642	      4.27210593	     27.27666220	     44.91293146	      0.00000000	      0.00000000
     12.33428571	     -3.36657205	     -5.10902561	      3.31711031	      1.00443210	      0.92428659	      0.50677868	     -1.79927002	      4.10851202	    -17.98370118	     10.59698369	     10.59698369	     16.72637619	      9.63001980	     -4.60737207	     26.51089058	     -7.17661121	     -0.85069927	     24.97034735	     24.97034735	      5.47469172	    -12.40876723	      7.65554181	     -8.74163387	      6.13307600	      3.76965341	     31.76977672	    -18.11809201	     -8.54715053	     67.84700034	     45.23005465	      0.00000000	      0.00000000	     -8.00559580	     -6.83345067	      4.09789883	     27.55701769	     44.95546733	      0.00000000	      0.00000000
     12.34785714	     -3.54415406	     -4.99205319	      3.22415520	      1.00526134	      0.92424338	      0.50411934	     -1.70059705	      3.63419129	    -18.03792415	     11.30787595	     11.30787595	     16.96447998	      9.71235766	     -4.38306141	     26.22425478	     -6.79194643	     -0.52636305	     25.04257909	     25.04257909	      5.68975957	    -13.02974474	      7.59180158	     -8.60750603	      5.97653241	      3.95789506	     30.64123886	    -18.38778044	     -8.22431068	     67.18212047	     45.23922923	      0.00000000	      0.00000000	     -7.20143561	     -7.04683180	      3.71398979	     28.04136064	     45.04052690	      0.00000000	      0.00000000
     12.36142857	     -3.67964281	     -4.90747089	      3.16574209	      1.00605509	      0.92446428	      0.50128783	     -1.66311677	      3.18941145	    -18.09775760	     11.96873680	     11.96873680	     17.12140365	      9.87202605	     -4.07758316	     25.94247988	     -6.47229361	     -0.29631551	     25.12396302	     25.12396302	      5.99888231	    -13.45154919	      7.54440980	     -8.51748309	      5.88031590	      3.91493819	     29.54647094	    -18.45137877	     -7.86102197	     66.52483946	     45.24704506	      0.00000000	      0.00000000	     -6.38336921	     -7.23442641	      3.26784871	     28.48241753	     45.13567119	      0.00000000	      0.00000000
     12.37500000	     -3.80250120	     -4.80127955	      3.10737746	      1.00678519	      0.92487056	      0.49827995	     -1.60501932	      2.69940578	    -18.16754177	     12.67935718	     12.67935718	     17.21517800	      9.97913777	     -3.82320229	     25.66280562	     -6.15552130	     -0.20625069	     25.20074294	     25.20074294	      6.37992162	    -13.76617553	      7.54222440	     -8.46762078	      5.79187761	      3.89119752	     28.39518530	    -18.50880214	     -7.51653064	     65.65453250	     45.26224369	      0.00000000	      0.00000000	     -5.52920842	     -7.42949319	      2.80850014	     28.97915725	     45.23041126	      0.00000000	      0.00000000
     12.38857143	     -3.83998963	     -4.80117613	      3.09870645	      1.00755757	      0.92551982	      0.49515826	     -1.76466144	      2.39154274	    -18.14797235	     13.09548336	     13.09548336	     17.04930971	      9.96381452	     -3.76389007	     25.33458951	     -5.96464193	     -0.13339855	     25.31467877	     25.31467877	      6.78480056	    -13.89539651	      7.41649858	     -8.54067997	      5.86336320	      3.56417054	     27.22593269	    -18.13542850	     -7.27304117	     65.09046613	     45.26734024	      0.00000000	      0.00000000	     -4.67862649	     -7.66041650	      2.68262369	     29.34765152	     45.26491779	      0.00000000	      0.00000000
     12.40214286	     -3.87907837	     -4.74352788	      3.05183039	      1.00829017	      0.92624449	      0.49191783	     -1.78429814	      1.95173900	    -18.12969570	     13.78631882	     13.78631882	     16.94065399	      9.93854872	     -3.77533871	     24.95217606	     -5.72361925	     -0.17312775	     25.34705837	     25.34705837	      7.18412661	    -14.01977297	      7.34030391	     -8.60676147	      5.87724686	      3.46835896	     25.88013829	    -17.97404092	     -7.01712865	     64.21157226	     45.28221729	      0.00000000	      0.00000000	     -3.75640743	     -7.91909042	      2.50030020	     29.85728936	     45.30862029	      0.00000000	      0.00000000
     12.41571429	     -4.11969170	     -4.46423115	      2.79779481	      1.00874663	      0.92677364	      0.48847422	     -1.10334125	      0.95920425	    -18.42657506	     15.49732535	     15.49732535	     17.37620251	     10.54242067	     -3.16819750	     24.64200481	     -5.23488647	     -0.34275847	     25.21001724	     25.21001724	      7.79956817	    -14.30991576	      8.22886301	     -8.45829518	      5.60630587	      3.54146057	     25.38100861	    -18.28360694	     -6.00065362	     60.81542994	     45.36782290	      0.00000000	      0.00000000	     -3.21233248	     -7.94597823	      0.70048977	     31.74180944	     45.59963061	      0.00000000	      0.00000000
     12.42928571	     -4.08758968	     -4.55615190	      2.72823775	      1.00952953	      0.92762768	      0.48521083	     -1.17863050	      0.68735195	    -18.30041524	     16.17395936	     16.17395936	     17.14521438	     10.46655485	     -3.22999696	     24.17369314	     -5.16759313	     -0.42407752	     25.23701772	     25.23701772	      8.19004045	    -14.35223138	      8.10191975	     -8.59296198	      5.80133278	      3.21680614	     23.98282980	    -17.93812132	     -5.75992021	     60.08440334	     45.37703251	      0.00000000	      0.00000000	     -2.35459868	     -8.21532042	      0.56636582	     32.17826355	     45.63235281	      0.00000000	      0.00000000
     12.44285714	     -4.21247803	     -4.25420156	      2.40436757	      1.01008495	      0.92814380	      0.48179753	     -0.44391093	     -0.31291993	    -18.01883001	     18.13362014	     18.13362014	     17.17592499	     10.20059899	     -3.79979710	     23.68759958	     -4.76862521	     -1.00066234	     25.05717419	     25.05717419	      8.59431412	    -14.18136771	      8.00727709	     -8.55907646	      5.53499463	      4.05099876	     22.36344476	    -18.59941828	     -5.47449904	     57.98131515	     45.43316052	      0.00000000	      0.00000000	     -1.18493037	     -8.36612962	      0.14267552	     33.45275998	     45.71057913	      0.00000000	      0.00000000
     12.45642857	     -4.28089646	     -4.20483778	      2.14624382	      1.01066723	      0.92869337	      0.47851359	      0.15729306	     -0.98630254	    -17.78384073	     19.88356549	     19.88356549	     16.97116765	     10.00609624	     -4.42545878	     23.22004857	     -4.59117039	     -1.31295669	     24.96895384	     24.96895384	      9.01742671	    -14.14595991	      7.90594680	     -8.57078711	      5.55520484	      4.34549947	     20.97517556	    -18.65797167	     -5.11986401	     55.99280313	     45.48293242	      0.00000000	      0.00000000	     -0.27518665	     -8.54683983	     -0.23644626	     34.71191568	     45.77710008	      0.00000000	      0.00000000
